<svg id="Layer_1" enable-background="new 0 0 512 512" height="512" viewBox="0 0 512 512" width="512" xmlns="http://www.w3.org/2000/svg"><g><g><g><path d="m160 32c-5.179 0-10.203 1.762-14.247 4.998-21.334 17.067-33.753 42.906-33.753 70.227v52.775h96v-52.775c0-27.321-12.419-53.16-33.753-70.227-4.044-3.236-9.068-4.998-14.247-4.998z" fill="#555a6e"/></g><g><path d="m128 164c-2.209 0-4-1.791-4-4v-52.775c0-23.805 10.661-45.986 29.249-60.855 1.725-1.381 4.242-1.101 5.622.624 1.38 1.726 1.1 4.242-.625 5.622-16.68 13.343-26.246 33.247-26.246 54.609v52.775c0 2.209-1.791 4-4 4z" fill="#73788c"/></g><g><path d="m112 160h96v48h-96z" fill="#d2be69"/></g><g><path d="m160 160h48v48h-48z" fill="#a07337"/></g><g><path d="m184 88c13.255 0 24 10.745 24 24v48h-48v-48c0-13.255 10.745-24 24-24z" fill="#463c4b"/></g><g><path d="m112 208-16 32h128l-16-32z" fill="#f0dc87"/></g><g><path d="m216 440h-112c-4.418 0-8-3.582-8-8v-192h128v192c0 4.418-3.582 8-8 8z" fill="#d2be69"/></g><g><path d="m216 440h-56v-200h64v192c0 4.418-3.582 8-8 8z" fill="#a07337"/></g><g><path d="m216 456h-112c-4.418 0-8 3.582-8 8v8c0 4.418 3.582 8 8 8h112c4.418 0 8-3.582 8-8v-8c0-4.418-3.582-8-8-8z" fill="#d2be69"/></g><g><path d="m216 456h-56v24h56c4.418 0 8-3.582 8-8v-8c0-4.418-3.582-8-8-8z" fill="#a07337"/></g><g><path d="m104 440h112v16h-112z" fill="#a07337"/></g><g><path d="m112 242.667h8v197.333h-8z" fill="#f0dc87"/></g><g><path d="m120 160h8v48h-8z" fill="#f0dc87"/></g><g><path d="m112 456h8v24h-8z" fill="#f0dc87"/></g></g><g><g><path d="m352 32c-5.179 0-10.203 1.762-14.247 4.998-21.334 17.067-33.753 42.906-33.753 70.227v52.775h96v-52.775c0-27.321-12.419-53.16-33.753-70.227-4.044-3.236-9.068-4.998-14.247-4.998z" fill="#555a6e"/></g><g><path d="m320 164c-2.209 0-4-1.791-4-4v-52.775c0-23.805 10.661-45.986 29.249-60.855 1.725-1.381 4.242-1.101 5.622.624 1.38 1.726 1.1 4.242-.625 5.622-16.68 13.343-26.246 33.247-26.246 54.609v52.775c0 2.209-1.791 4-4 4z" fill="#73788c"/></g><g><path d="m304 160h96v48h-96z" fill="#d2be69"/></g><g><path d="m352 160h48v48h-48z" fill="#a07337"/></g><g><path d="m376 88c13.255 0 24 10.745 24 24v48h-48v-48c0-13.255 10.745-24 24-24z" fill="#463c4b"/></g><g><path d="m304 208-16 32h128l-16-32z" fill="#f0dc87"/></g><g><path d="m408 440h-112c-4.418 0-8-3.582-8-8v-192h128v192c0 4.418-3.582 8-8 8z" fill="#d2be69"/></g><g><path d="m408 440h-56v-200h64v192c0 4.418-3.582 8-8 8z" fill="#a07337"/></g><g><path d="m408 456h-112c-4.418 0-8 3.582-8 8v8c0 4.418 3.582 8 8 8h112c4.418 0 8-3.582 8-8v-8c0-4.418-3.582-8-8-8z" fill="#d2be69"/></g><g><path d="m408 456h-56v24h56c4.418 0 8-3.582 8-8v-8c0-4.418-3.582-8-8-8z" fill="#a07337"/></g><g><path d="m296 440h112v16h-112z" fill="#a07337"/></g><g><path d="m304 242.667h8v197.333h-8z" fill="#f0dc87"/></g><g><path d="m312 160h8v48h-8z" fill="#f0dc87"/></g><g><path d="m304 456h8v24h-8z" fill="#f0dc87"/></g></g></g></svg>